<mxfile host="65bd71144e">
    <diagram id="-R4MFb3HSI3PxX3x_Y5x" name="Page-1">
        <mxGraphModel dx="1096" dy="1879" grid="1" gridSize="10" guides="1" tooltips="1" connect="1" arrows="1" fold="1" page="1" pageScale="1" pageWidth="850" pageHeight="1100" math="0" shadow="0">
            <root>
                <mxCell id="0"/>
                <mxCell id="1" parent="0"/>
                <mxCell id="2" value="" style="strokeWidth=1;shadow=0;dashed=0;align=center;html=1;shape=mxgraph.mockup.containers.browserWindow;rSize=0;strokeColor=#E6E6C6;strokeColor2=#008cff;strokeColor3=#c4c4c4;mainText=,;recursiveResize=0;whiteSpace=wrap;" parent="1" vertex="1">
                    <mxGeometry x="50" y="-20" width="980" height="1280" as="geometry"/>
                </mxCell>
                <mxCell id="3" value="Page 1" style="strokeWidth=1;shadow=0;dashed=0;align=center;html=1;shape=mxgraph.mockup.containers.anchor;fontSize=17;fontColor=#666666;align=left;whiteSpace=wrap;" parent="2" vertex="1">
                    <mxGeometry x="60" y="12" width="110" height="26" as="geometry"/>
                </mxCell>
                <mxCell id="4" value="https://www.draw.io" style="strokeWidth=1;shadow=0;dashed=0;align=center;html=1;shape=mxgraph.mockup.containers.anchor;rSize=0;fontSize=17;fontColor=#666666;align=left;" parent="2" vertex="1">
                    <mxGeometry x="130" y="60" width="250" height="26" as="geometry"/>
                </mxCell>
                <mxCell id="14" value="" style="html=1;shadow=0;dashed=0;fillColor=#3C4B3C;strokeColor=none;fontSize=16;fontColor=default;align=right;spacing=15;labelBackgroundColor=#3C4C44;" parent="2" vertex="1">
                    <mxGeometry y="110" width="980" height="72.2" as="geometry"/>
                </mxCell>
                <mxCell id="15" value="" style="swimlane;shape=mxgraph.bootstrap.anchor;strokeColor=none;fillColor=none;fontColor=#3B483F;fontStyle=0;childLayout=stackLayout;horizontal=0;startSize=0;horizontalStack=1;resizeParent=1;resizeParentMax=0;resizeLast=0;collapsible=0;marginBottom=0;whiteSpace=wrap;html=1;resizeWidth=0;" parent="14" vertex="1">
                    <mxGeometry x="20" y="10" width="210" height="40" as="geometry"/>
                </mxCell>
                <mxCell id="17" value="&lt;font face=&quot;Garamond&quot; style=&quot;color: rgb(230, 230, 198);&quot;&gt;Home&lt;/font&gt;" style="text;strokeColor=none;align=center;verticalAlign=middle;spacingLeft=10;spacingRight=10;points=[[0,0.5],[1,0.5]];portConstraint=eastwest;rotatable=0;whiteSpace=wrap;html=1;fillColor=none;fontColor=#3C4C44;fontSize=18;" parent="15" vertex="1">
                    <mxGeometry width="60" height="40" as="geometry"/>
                </mxCell>
                <mxCell id="18" value="&lt;font face=&quot;Garamond&quot; style=&quot;color: rgb(230, 230, 198);&quot;&gt;Menu&lt;/font&gt;" style="text;strokeColor=none;align=center;verticalAlign=middle;spacingLeft=10;spacingRight=10;points=[[0,0.5],[1,0.5]];portConstraint=eastwest;rotatable=0;whiteSpace=wrap;html=1;fillColor=none;fontColor=#E6E6C6;fontSize=18;" parent="15" vertex="1">
                    <mxGeometry x="60" width="80" height="40" as="geometry"/>
                </mxCell>
                <mxCell id="19" value="&lt;font face=&quot;Garamond&quot; style=&quot;color: rgb(230, 230, 198);&quot;&gt;Reviews&lt;/font&gt;" style="text;strokeColor=none;align=left;verticalAlign=middle;spacingLeft=5;spacingRight=10;points=[[0,0.5],[1,0.5]];portConstraint=eastwest;rotatable=0;whiteSpace=wrap;html=1;fillColor=none;fontColor=#E6E6C6;fontSize=18;" parent="15" vertex="1">
                    <mxGeometry x="140" width="70" height="40" as="geometry"/>
                </mxCell>
                <mxCell id="20" value="" style="dashed=0;outlineConnect=0;html=1;align=center;labelPosition=center;verticalLabelPosition=bottom;verticalAlign=top;shape=mxgraph.weblogos.instagram;fillColor=#6FC0E4;gradientColor=#1E305B" parent="14" vertex="1">
                    <mxGeometry x="920" y="10" width="50" height="50" as="geometry"/>
                </mxCell>
                <mxCell id="16" value="&lt;font face=&quot;Garamond&quot; style=&quot;color: rgb(230, 230, 198); font-size: 35px;&quot;&gt;Olive Branch Cafe&lt;/font&gt;" style="text;strokeColor=none;align=center;verticalAlign=middle;spacingLeft=10;spacingRight=10;points=[[0,0.5],[1,0.5]];portConstraint=eastwest;rotatable=0;whiteSpace=wrap;html=1;fillColor=none;fontColor=#3C4C44;fontSize=16;" parent="14" vertex="1">
                    <mxGeometry x="345" y="11.1" width="290" height="50" as="geometry"/>
                </mxCell>
                <mxCell id="23" value="" style="rounded=0;whiteSpace=wrap;html=1;strokeColor=none;fillColor=#E6E6C6;" parent="2" vertex="1">
                    <mxGeometry y="180" width="980" height="1100" as="geometry"/>
                </mxCell>
                <mxCell id="7" value="First slide" style="html=1;shadow=0;dashed=0;strokeColor=none;strokeWidth=1;fillColor=#777777;fontColor=#555555;whiteSpace=wrap;align=center;verticalAlign=middle;fontStyle=0;fontSize=40;" parent="2" vertex="1">
                    <mxGeometry x="75" y="240" width="830" height="300" as="geometry"/>
                </mxCell>
                <mxCell id="8" value="" style="html=1;verticalLabelPosition=bottom;labelBackgroundColor=#ffffff;verticalAlign=top;shadow=0;dashed=0;strokeWidth=4;shape=mxgraph.ios7.misc.more;strokeColor=#a0a0a0;" parent="7" vertex="1">
                    <mxGeometry x="1" y="0.5" width="7" height="14" relative="1" as="geometry">
                        <mxPoint x="-50" y="-7" as="offset"/>
                    </mxGeometry>
                </mxCell>
                <mxCell id="9" value="" style="flipH=1;html=1;verticalLabelPosition=bottom;labelBackgroundColor=#ffffff;verticalAlign=top;shadow=0;dashed=0;strokeWidth=4;shape=mxgraph.ios7.misc.more;strokeColor=#a0a0a0;" parent="7" vertex="1">
                    <mxGeometry y="0.5" width="7" height="14" relative="1" as="geometry">
                        <mxPoint x="43" y="-7" as="offset"/>
                    </mxGeometry>
                </mxCell>
                <mxCell id="10" value="" style="html=1;shadow=0;strokeColor=none;fillColor=#ffffff;" parent="7" vertex="1">
                    <mxGeometry x="0.5" y="1" width="30" height="4" relative="1" as="geometry">
                        <mxPoint x="-50" y="-20" as="offset"/>
                    </mxGeometry>
                </mxCell>
                <mxCell id="11" value="" style="html=1;shadow=0;strokeColor=none;fillColor=#BBBBBB;fontFamily=Comic Sans MS;" parent="7" vertex="1">
                    <mxGeometry x="0.5" y="1" width="30" height="4" relative="1" as="geometry">
                        <mxPoint x="-15" y="-20" as="offset"/>
                    </mxGeometry>
                </mxCell>
                <mxCell id="12" value="" style="html=1;shadow=0;strokeColor=none;fillColor=#BBBBBB;" parent="7" vertex="1">
                    <mxGeometry x="0.5" y="1" width="30" height="4" relative="1" as="geometry">
                        <mxPoint x="20" y="-20" as="offset"/>
                    </mxGeometry>
                </mxCell>
                <mxCell id="24" value="Text" style="text;html=1;align=center;verticalAlign=middle;whiteSpace=wrap;rounded=0;" parent="2" vertex="1">
                    <mxGeometry x="280" y="630" width="380" height="80" as="geometry"/>
                </mxCell>
            </root>
        </mxGraphModel>
    </diagram>
</mxfile>